<svg data-v-423bf9ae="" xmlns="http://www.w3.org/2000/svg" viewBox="0 0 84.0405118534362 60" class="font"><!----><!----><!----><g data-v-423bf9ae="" id="bba82be3-9a91-4c91-bdda-b83f41e84b83" fill="white" transform="matrix(6.717866532041453,0,0,6.717866532041453,4.030721506455848,-25.39353458366125)"><path d="M2.02 3.79L0.47 5.62L0.68 5.71L0.68 5.71Q1.19 5.22 1.68 5.22L1.68 5.22L2.86 5.23L2.86 5.23Q1.91 5.58 1.70 6.32L1.70 6.32L1.50 7.27L0.27 8.63L0.33 8.78L1.29 8.33L0.83 10.61L0.83 10.61Q0.79 11.09-0.60 12.71L-0.60 12.71L3.99 12.70L5.78 10.73L5.44 10.71L5.44 10.71Q4.90 11.26 4.33 11.25L4.33 11.25L1.03 11.25L1.03 11.25Q1.57 11.10 2.17 10.14L2.17 10.14L2.52 8.41L3.32 8.41L4.74 7.23L4.66 7.07L2.84 7.06L3.21 5.20L5.42 5.18L6.90 3.92L6.89 3.78L2.02 3.79ZM9.72 4.01L9.72 4.01L9.72 4.01Q8.74 4.29 8.09 4.96L8.09 4.96L8.09 4.96Q7.44 5.62 7.19 6.36L7.19 6.36L7.19 6.36Q6.95 7.10 7.36 7.64L7.36 7.64L7.36 7.64Q7.77 8.18 9.12 8.86L9.12 8.86L9.12 8.86Q10.47 9.55 10.64 10.03L10.64 10.03L10.64 10.03Q10.81 10.51 10.38 10.95L10.38 10.95L10.38 10.95Q9.95 11.40 9.29 11.33L9.29 11.33L9.29 11.33Q8.63 11.25 8.02 10.83L8.02 10.83L8.02 10.83Q7.42 10.40 7.16 9.95L7.16 9.95L7.16 9.95Q6.90 9.50 7.34 8.80L7.34 8.80L7.27 8.68L5.85 10.03L5.85 10.03Q5.58 10.54 5.93 11.24L5.93 11.24L5.93 11.24Q6.28 11.94 6.83 12.31L6.83 12.31L6.83 12.31Q7.38 12.68 8.13 12.71L8.13 12.71L8.13 12.71Q8.87 12.74 9.69 12.13L9.69 12.13L9.69 12.13Q10.50 11.53 11.10 10.76L11.10 10.76L11.10 10.76Q11.71 9.99 11.78 9.17L11.78 9.17L11.78 9.17Q11.85 8.35 11.48 8.02L11.48 8.02L11.48 8.02Q11.12 7.69 9.61 6.90L9.61 6.90L9.61 6.90Q8.09 6.12 8.24 5.53L8.24 5.53L8.24 5.53Q8.39 4.94 9.21 4.87L9.21 4.87L9.21 4.87Q10.03 4.81 10.39 5.29L10.39 5.29L10.39 5.29Q10.75 5.78 10.14 6.39L10.14 6.39L10.28 6.55L11.91 4.97L11.91 4.97Q11.72 4.34 11.21 4.04L11.21 4.04L11.21 4.04Q10.69 3.73 9.72 4.01Z"></path></g><!----><!----></svg>