<?xml version="1.0" standalone="no"?><svg xmlns="http://www.w3.org/2000/svg" viewBox="0 0 1440 320"><path fill="#ffffff" fill-opacity="1" d="M0,224L20,224C40,224,80,224,120,186.7C160,149,200,75,240,85.3C280,96,320,192,360,197.3C400,203,440,117,480,80C520,43,560,53,600,85.3C640,117,680,171,720,181.3C760,192,800,160,840,165.3C880,171,920,213,960,202.7C1000,192,1040,128,1080,122.7C1120,117,1160,171,1200,208C1240,245,1280,267,1320,245.3C1360,224,1400,160,1420,128L1440,96L1440,320L1420,320C1400,320,1360,320,1320,320C1280,320,1240,320,1200,320C1160,320,1120,320,1080,320C1040,320,1000,320,960,320C920,320,880,320,840,320C800,320,760,320,720,320C680,320,640,320,600,320C560,320,520,320,480,320C440,320,400,320,360,320C320,320,280,320,240,320C200,320,160,320,120,320C80,320,40,320,20,320L0,320Z"></path></svg>